<svg
  style="object-fit: cover"
  id="my-svg"
  version="1"
  baseProfile="full"
  width="100%"
  height="100%"
  viewBox="0 0 1366 635"
  xmlns="http://www.w3.org/2000/svg"
>
  <rect width="1366" height="635" fill="#ffffff" />
  <defs>
    <linearGradient id="linear-gradient" x1="1" x2="0" y1="0" y2="1">
      <stop offset="0%" stop-color="#0b135490" />
      <stop offset="100%" stop-color="#f765a390" />
    </linearGradient>
  </defs>
  <path
    transform="scale(1, 1)"
    d="M 0,635 V 0,335 C 101.79761904761907,412 203.59523809523813,489 309,456 C 414.40476190476187,423 523.4166666666666,280 654,250 C 784.5833333333334,219.99999999999997 936.7380952380954,303 1059,336 C 1181.2619047619046,369 1273.6309523809523,352 1366,335 C 1366,335 1366,635 1366,635 Z"
    stroke="none"
    stroke-width="0"
    fill="url(#linear-gradient)"
    class="transition-all duration-300 ease-in-out delay-150"
    style="transform-origin: center center"
  />
  <defs>
    <linearGradient id="linear-gradient" x1="1" x2="0" y1="0" y2="1">
      <stop offset="0%" stop-color="#0b1354ff" />
      <stop offset="100%" stop-color="#f765a3ff" />
    </linearGradient>
  </defs>
  <path
    transform="scale(1, 1)"
    d="M 0,635 V 0,502 C 85.61904761904762,426.25 171.23809523809524,350.5 302,378 C 432.76190476190476,405.5 608.6666666666667,536.25 729,588 C 849.3333333333333,639.75 914.0952380952381,612.5 1011,585 C 1107.904761904762,557.5 1236.952380952381,529.75 1366,502 C 1366,502 1366,635 1366,635 Z"
    stroke="none"
    stroke-width="0"
    fill="url(#linear-gradient)"
    class="transition-all duration-300 ease-in-out delay-150"
    style="transform-origin: center center"
  />
</svg>
